<svg width="800" height="600" xmlns="http://www.w3.org/2000/svg">
<rect width="100%" height="100%" fill="white"/>
<text x="400" y="30" font-family="Arial" font-size="20" text-anchor="middle">Top Feature Determinants</text>
<text x="340" y="75" font-family="Arial" font-size="12" text-anchor="end">EMPLOYEE_AGE_AT_HIRE</text>
<rect x="350" y="60" width="400.0" height="20" fill="red"/>
<text x="755.0" y="75" font-family="Arial" font-size="10">  -1.877</text>
<text x="340" y="105" font-family="Arial" font-size="12" text-anchor="end">MANAGER_RISK_CONCERNS</text>
<rect x="350" y="90" width="89.1361066211" height="20" fill="blue"/>
<text x="444.136106621" y="105" font-family="Arial" font-size="10">  0.418</text>
<text x="340" y="135" font-family="Arial" font-size="12" text-anchor="end">MANAGER_DIVERSITY_COMMITMENT</text>
<rect x="350" y="120" width="85.5052663267" height="20" fill="blue"/>
<text x="440.505266327" y="135" font-family="Arial" font-size="10">  0.401</text>
<text x="340" y="165" font-family="Arial" font-size="12" text-anchor="end">TA_TIME_TO_FILL</text>
<rect x="350" y="150" width="82.848720217" height="20" fill="blue"/>
<text x="437.848720217" y="165" font-family="Arial" font-size="10">  0.389</text>
<text x="340" y="195" font-family="Arial" font-size="12" text-anchor="end">MANAGER_RISK_CULTURE</text>
<rect x="350" y="180" width="71.8431577433" height="20" fill="red"/>
<text x="426.843157743" y="195" font-family="Arial" font-size="10">  -0.337</text>
<text x="340" y="225" font-family="Arial" font-size="12" text-anchor="end">EMPLOYEE_HIRE_DIRECT_MANAGER_AGE</text>
<rect x="350" y="210" width="70.1368551603" height="20" fill="blue"/>
<text x="425.13685516" y="225" font-family="Arial" font-size="10">  0.329</text>
<text x="340" y="255" font-family="Arial" font-size="12" text-anchor="end">MANAGER_RISK_COMMUNICATION</text>
<rect x="350" y="240" width="60.9535325062" height="20" fill="blue"/>
<text x="415.953532506" y="255" font-family="Arial" font-size="10">  0.286</text>
<text x="340" y="285" font-family="Arial" font-size="12" text-anchor="end">MANAGER_INCLUSION_TEAM</text>
<rect x="350" y="270" width="59.2977585146" height="20" fill="blue"/>
<text x="414.297758515" y="285" font-family="Arial" font-size="10">  0.278</text>
<text x="340" y="315" font-family="Arial" font-size="12" text-anchor="end">MANAGER_ENGAGEMENT_ESAT</text>
<rect x="350" y="300" width="48.4876386873" height="20" fill="blue"/>
<text x="403.487638687" y="315" font-family="Arial" font-size="10">  0.228</text>
<text x="340" y="345" font-family="Arial" font-size="12" text-anchor="end">MANAGER_RESPONSERATE</text>
<rect x="350" y="330" width="44.9077485981" height="20" fill="blue"/>
<text x="399.907748598" y="345" font-family="Arial" font-size="10">  0.211</text>
<text x="340" y="375" font-family="Arial" font-size="12" text-anchor="end">MANAGER_ENGAGEMENT_RECOMMEND</text>
<rect x="350" y="360" width="43.1476567949" height="20" fill="red"/>
<text x="398.147656795" y="375" font-family="Arial" font-size="10">  -0.202</text>
<text x="340" y="405" font-family="Arial" font-size="12" text-anchor="end">EMPLOYEE_HIRE_DIRECT_MANAGER_TENURE</text>
<rect x="350" y="390" width="37.731727013" height="20" fill="blue"/>
<text x="392.731727013" y="405" font-family="Arial" font-size="10">  0.177</text>
<text x="340" y="435" font-family="Arial" font-size="12" text-anchor="end">MANAGER_JOB_FEEDBACK</text>
<rect x="350" y="420" width="37.0563982008" height="20" fill="blue"/>
<text x="392.056398201" y="435" font-family="Arial" font-size="10">  0.174</text>
<text x="340" y="465" font-family="Arial" font-size="12" text-anchor="end">MANAGER_ENGAGEMENT</text>
<rect x="350" y="450" width="32.6835993543" height="20" fill="red"/>
<text x="387.683599354" y="465" font-family="Arial" font-size="10">  -0.153</text>
<text x="340" y="495" font-family="Arial" font-size="12" text-anchor="end">TA_TIME_TO_ACCEPT</text>
<rect x="350" y="480" width="31.2598803088" height="20" fill="blue"/>
<text x="386.259880309" y="495" font-family="Arial" font-size="10">  0.147</text>
</svg>